<svg xmlns="http://www.w3.org/2000/svg" xmlns:xlink="http://www.w3.org/1999/xlink" width="500" zoomAndPan="magnify" viewBox="0 0 375 374.999991" height="500" preserveAspectRatio="xMidYMid meet" version="1.0"><defs><clipPath id="id1"><path d="M 112.5 112.5 L 262.5 112.5 L 262.5 262.5 L 112.5 262.5 Z M 112.5 112.5 " clip-rule="nonzero"/></clipPath><clipPath id="id2"><path d="M 141 141 L 262.5 141 L 262.5 262.5 L 141 262.5 Z M 141 141 " clip-rule="nonzero"/></clipPath></defs><g clip-path="url(#id1)"><path fill="#ffce00" d="M 262.5 187.5 C 262.5 188.726562 262.46875 189.953125 262.410156 191.179688 C 262.347656 192.40625 262.257812 193.628906 262.140625 194.851562 C 262.019531 196.074219 261.867188 197.289062 261.6875 198.503906 C 261.507812 199.71875 261.296875 200.929688 261.058594 202.132812 C 260.820312 203.335938 260.550781 204.53125 260.253906 205.722656 C 259.953125 206.914062 259.625 208.097656 259.269531 209.269531 C 258.914062 210.445312 258.527344 211.609375 258.117188 212.765625 C 257.703125 213.921875 257.261719 215.066406 256.789062 216.203125 C 256.320312 217.335938 255.824219 218.457031 255.300781 219.566406 C 254.773438 220.675781 254.222656 221.773438 253.644531 222.855469 C 253.066406 223.9375 252.460938 225.003906 251.828125 226.058594 C 251.199219 227.109375 250.542969 228.148438 249.859375 229.167969 C 249.179688 230.1875 248.472656 231.191406 247.742188 232.175781 C 247.007812 233.164062 246.253906 234.128906 245.476562 235.078125 C 244.695312 236.027344 243.894531 236.957031 243.070312 237.867188 C 242.246094 238.777344 241.402344 239.664062 240.53125 240.53125 C 239.664062 241.402344 238.777344 242.246094 237.867188 243.070312 C 236.957031 243.894531 236.027344 244.695312 235.078125 245.476562 C 234.128906 246.253906 233.164062 247.007812 232.175781 247.742188 C 231.191406 248.472656 230.1875 249.179688 229.167969 249.859375 C 228.148438 250.542969 227.109375 251.199219 226.058594 251.828125 C 225.003906 252.460938 223.9375 253.066406 222.855469 253.644531 C 221.773438 254.222656 220.675781 254.773438 219.566406 255.300781 C 218.457031 255.824219 217.335938 256.320312 216.203125 256.789062 C 215.066406 257.261719 213.921875 257.703125 212.765625 258.117188 C 211.609375 258.527344 210.445312 258.914062 209.269531 259.269531 C 208.097656 259.625 206.914062 259.953125 205.722656 260.253906 C 204.53125 260.550781 203.335938 260.820312 202.132812 261.058594 C 200.929688 261.296875 199.71875 261.507812 198.503906 261.6875 C 197.289062 261.867188 196.074219 262.019531 194.851562 262.140625 C 193.628906 262.257812 192.40625 262.347656 191.179688 262.410156 C 189.953125 262.46875 188.726562 262.5 187.5 262.5 C 186.273438 262.5 185.046875 262.46875 183.820312 262.410156 C 182.59375 262.347656 181.371094 262.257812 180.148438 262.140625 C 178.925781 262.019531 177.710938 261.867188 176.496094 261.6875 C 175.28125 261.507812 174.070312 261.296875 172.867188 261.058594 C 171.664062 260.820312 170.46875 260.550781 169.277344 260.253906 C 168.085938 259.953125 166.902344 259.625 165.730469 259.269531 C 164.554688 258.914062 163.390625 258.527344 162.234375 258.117188 C 161.078125 257.703125 159.933594 257.261719 158.796875 256.789062 C 157.664062 256.320312 156.542969 255.824219 155.433594 255.300781 C 154.324219 254.773438 153.226562 254.222656 152.144531 253.644531 C 151.0625 253.066406 149.996094 252.460938 148.941406 251.828125 C 147.890625 251.199219 146.851562 250.542969 145.832031 249.859375 C 144.8125 249.179688 143.808594 248.472656 142.824219 247.742188 C 141.835938 247.007812 140.871094 246.253906 139.921875 245.476562 C 138.972656 244.695312 138.042969 243.894531 137.132812 243.070312 C 136.222656 242.246094 135.335938 241.402344 134.46875 240.53125 C 133.597656 239.664062 132.753906 238.777344 131.929688 237.867188 C 131.105469 236.957031 130.304688 236.027344 129.523438 235.078125 C 128.746094 234.128906 127.992188 233.164062 127.257812 232.175781 C 126.527344 231.191406 125.820312 230.1875 125.140625 229.167969 C 124.457031 228.148438 123.800781 227.109375 123.171875 226.058594 C 122.539062 225.003906 121.933594 223.9375 121.355469 222.855469 C 120.777344 221.773438 120.226562 220.675781 119.699219 219.566406 C 119.175781 218.457031 118.679688 217.335938 118.210938 216.203125 C 117.738281 215.066406 117.296875 213.921875 116.882812 212.765625 C 116.46875 211.609375 116.085938 210.445312 115.730469 209.269531 C 115.375 208.097656 115.046875 206.914062 114.746094 205.722656 C 114.449219 204.53125 114.179688 203.335938 113.941406 202.132812 C 113.703125 200.929688 113.492188 199.71875 113.3125 198.503906 C 113.132812 197.289062 112.980469 196.074219 112.859375 194.851562 C 112.742188 193.628906 112.652344 192.40625 112.589844 191.179688 C 112.53125 189.953125 112.5 188.726562 112.5 187.5 C 112.5 186.273438 112.53125 185.046875 112.589844 183.820312 C 112.652344 182.59375 112.742188 181.371094 112.859375 180.148438 C 112.980469 178.925781 113.132812 177.710938 113.3125 176.496094 C 113.492188 175.28125 113.703125 174.070312 113.941406 172.867188 C 114.179688 171.664062 114.449219 170.46875 114.746094 169.277344 C 115.046875 168.085938 115.375 166.902344 115.730469 165.730469 C 116.085938 164.554688 116.46875 163.390625 116.882812 162.234375 C 117.296875 161.078125 117.738281 159.933594 118.210938 158.796875 C 118.679688 157.664062 119.175781 156.542969 119.699219 155.433594 C 120.226562 154.324219 120.777344 153.226562 121.355469 152.144531 C 121.933594 151.0625 122.539062 149.996094 123.171875 148.941406 C 123.800781 147.890625 124.457031 146.851562 125.140625 145.832031 C 125.820312 144.8125 126.527344 143.808594 127.257812 142.824219 C 127.992188 141.835938 128.746094 140.871094 129.523438 139.921875 C 130.304688 138.972656 131.105469 138.042969 131.929688 137.132812 C 132.753906 136.222656 133.597656 135.335938 134.46875 134.46875 C 135.335938 133.597656 136.222656 132.753906 137.132812 131.929688 C 138.042969 131.105469 138.972656 130.304688 139.921875 129.523438 C 140.871094 128.746094 141.835938 127.992188 142.824219 127.257812 C 143.808594 126.527344 144.8125 125.820312 145.832031 125.140625 C 146.851562 124.457031 147.890625 123.800781 148.941406 123.171875 C 149.996094 122.539062 151.0625 121.933594 152.144531 121.355469 C 153.226562 120.777344 154.324219 120.226562 155.433594 119.699219 C 156.542969 119.175781 157.664062 118.679688 158.796875 118.210938 C 159.933594 117.738281 161.078125 117.296875 162.234375 116.882812 C 163.390625 116.46875 164.554688 116.085938 165.730469 115.730469 C 166.902344 115.375 168.085938 115.046875 169.277344 114.746094 C 170.46875 114.449219 171.664062 114.179688 172.867188 113.941406 C 174.070312 113.703125 175.28125 113.492188 176.496094 113.3125 C 177.710938 113.132812 178.925781 112.980469 180.148438 112.859375 C 181.371094 112.742188 182.59375 112.652344 183.820312 112.589844 C 185.046875 112.53125 186.273438 112.5 187.5 112.5 C 188.726562 112.5 189.953125 112.53125 191.179688 112.589844 C 192.40625 112.652344 193.628906 112.742188 194.851562 112.859375 C 196.074219 112.980469 197.289062 113.132812 198.503906 113.3125 C 199.71875 113.492188 200.929688 113.703125 202.132812 113.941406 C 203.335938 114.179688 204.53125 114.449219 205.722656 114.746094 C 206.914062 115.046875 208.097656 115.375 209.269531 115.730469 C 210.445312 116.085938 211.609375 116.46875 212.765625 116.882812 C 213.921875 117.296875 215.066406 117.738281 216.203125 118.210938 C 217.335938 118.679688 218.457031 119.175781 219.566406 119.699219 C 220.675781 120.226562 221.773438 120.777344 222.855469 121.355469 C 223.9375 121.933594 225.003906 122.539062 226.058594 123.171875 C 227.109375 123.800781 228.148438 124.457031 229.167969 125.140625 C 230.1875 125.820312 231.191406 126.527344 232.175781 127.257812 C 233.164062 127.992188 234.128906 128.746094 235.078125 129.523438 C 236.027344 130.304688 236.957031 131.105469 237.867188 131.929688 C 238.777344 132.753906 239.664062 133.597656 240.53125 134.46875 C 241.402344 135.335938 242.246094 136.222656 243.070312 137.132812 C 243.894531 138.042969 244.695312 138.972656 245.476562 139.921875 C 246.253906 140.871094 247.007812 141.835938 247.742188 142.824219 C 248.472656 143.808594 249.179688 144.8125 249.859375 145.832031 C 250.542969 146.851562 251.199219 147.890625 251.828125 148.941406 C 252.460938 149.996094 253.066406 151.0625 253.644531 152.144531 C 254.222656 153.226562 254.773438 154.324219 255.300781 155.433594 C 255.824219 156.542969 256.320312 157.664062 256.789062 158.796875 C 257.261719 159.933594 257.703125 161.078125 258.117188 162.234375 C 258.527344 163.390625 258.914062 164.554688 259.269531 165.730469 C 259.625 166.902344 259.953125 168.085938 260.253906 169.277344 C 260.550781 170.46875 260.820312 171.664062 261.058594 172.867188 C 261.296875 174.070312 261.507812 175.28125 261.6875 176.496094 C 261.867188 177.710938 262.019531 178.925781 262.140625 180.148438 C 262.257812 181.371094 262.347656 182.59375 262.410156 183.820312 C 262.46875 185.046875 262.5 186.273438 262.5 187.5 Z M 262.5 187.5 " fill-opacity="1" fill-rule="nonzero"/></g><g clip-path="url(#id2)"><path fill="#ffa300" d="M 262.5 187.5 C 262.5 181.199219 261.722656 175.078125 260.257812 169.230469 L 233.015625 141.984375 L 141.984375 233.015625 L 169.230469 260.257812 C 175.078125 261.722656 181.199219 262.5 187.5 262.5 C 228.921875 262.5 262.5 228.921875 262.5 187.5 Z M 262.5 187.5 " fill-opacity="1" fill-rule="nonzero"/></g><path fill="#7584f2" d="M 141.984375 141.984375 L 233.015625 141.984375 L 233.015625 233.015625 L 141.984375 233.015625 Z M 141.984375 141.984375 " fill-opacity="1" fill-rule="nonzero"/><path fill="#606aea" d="M 187.394531 141.984375 L 233.015625 141.984375 L 233.015625 233.015625 L 187.394531 233.015625 Z M 187.394531 141.984375 " fill-opacity="1" fill-rule="nonzero"/><path fill="#ffffff" d="M 151.75 151.75 L 151.75 223.25 L 183.523438 223.25 L 183.523438 214.460938 L 160.539062 214.460938 L 160.539062 184.175781 L 183.933594 184.175781 L 183.933594 160.539062 L 214.460938 160.539062 L 214.460938 214.460938 L 206.738281 214.460938 L 206.738281 223.25 L 223.25 223.25 L 223.25 151.75 Z M 175.144531 175.386719 L 160.539062 175.386719 L 160.539062 160.539062 L 175.144531 160.539062 Z M 175.144531 175.386719 " fill-opacity="1" fill-rule="nonzero"/><path fill="#e9edf5" d="M 187.394531 151.75 L 187.394531 160.539062 L 214.460938 160.539062 L 214.460938 191.136719 L 196.144531 191.136719 L 196.144531 199.925781 L 214.460938 199.925781 L 214.460938 214.460938 L 206.738281 214.460938 L 206.738281 223.25 L 223.25 223.25 L 223.25 151.75 Z M 187.394531 151.75 " fill-opacity="1" fill-rule="nonzero"/><path fill="#1dd882" d="M 240.746094 157.410156 C 241.261719 157.925781 241.753906 158.46875 242.214844 159.035156 C 242.679688 159.597656 243.117188 160.1875 243.523438 160.792969 C 243.929688 161.402344 244.304688 162.027344 244.648438 162.675781 C 244.992188 163.320312 245.304688 163.980469 245.585938 164.65625 C 245.867188 165.332031 246.113281 166.019531 246.324219 166.71875 C 246.535156 167.417969 246.714844 168.128906 246.855469 168.84375 C 247 169.5625 247.105469 170.285156 247.179688 171.011719 C 247.25 171.742188 247.285156 172.472656 247.285156 173.203125 C 247.285156 173.933594 247.25 174.664062 247.179688 175.390625 C 247.105469 176.121094 247 176.84375 246.855469 177.558594 C 246.714844 178.277344 246.535156 178.984375 246.324219 179.6875 C 246.113281 180.386719 245.867188 181.074219 245.585938 181.75 C 245.304688 182.425781 244.992188 183.085938 244.648438 183.730469 C 244.304688 184.375 243.929688 185.003906 243.523438 185.609375 C 243.117188 186.21875 242.679688 186.804688 242.214844 187.371094 C 241.753906 187.9375 241.261719 188.476562 240.746094 188.996094 C 240.226562 189.511719 239.6875 190.003906 239.121094 190.46875 C 238.554688 190.929688 237.96875 191.367188 237.359375 191.773438 C 236.75 192.179688 236.125 192.554688 235.480469 192.898438 C 234.835938 193.246094 234.175781 193.558594 233.5 193.835938 C 232.824219 194.117188 232.136719 194.363281 231.433594 194.574219 C 230.734375 194.789062 230.027344 194.964844 229.308594 195.109375 C 228.589844 195.25 227.867188 195.359375 227.140625 195.429688 C 226.414062 195.5 225.683594 195.535156 224.953125 195.535156 C 224.21875 195.535156 223.492188 195.5 222.761719 195.429688 C 222.035156 195.359375 221.3125 195.25 220.59375 195.109375 C 219.875 194.964844 219.167969 194.789062 218.46875 194.574219 C 217.769531 194.363281 217.082031 194.117188 216.40625 193.835938 C 215.730469 193.558594 215.066406 193.246094 214.421875 192.898438 C 213.777344 192.554688 213.152344 192.179688 212.542969 191.773438 C 211.933594 191.367188 211.347656 190.929688 210.78125 190.46875 C 210.21875 190.003906 209.675781 189.511719 209.160156 188.996094 C 208.640625 188.476562 208.152344 187.9375 207.6875 187.371094 C 207.222656 186.804688 206.789062 186.21875 206.382812 185.609375 C 205.976562 185.003906 205.597656 184.375 205.253906 183.730469 C 204.910156 183.085938 204.597656 182.425781 204.316406 181.75 C 204.039062 181.074219 203.792969 180.386719 203.578125 179.6875 C 203.367188 178.984375 203.1875 178.277344 203.046875 177.558594 C 202.902344 176.84375 202.796875 176.121094 202.726562 175.390625 C 202.652344 174.664062 202.617188 173.933594 202.617188 173.203125 C 202.617188 172.472656 202.652344 171.742188 202.726562 171.011719 C 202.796875 170.285156 202.902344 169.5625 203.046875 168.84375 C 203.1875 168.128906 203.367188 167.417969 203.578125 166.71875 C 203.792969 166.019531 204.039062 165.332031 204.316406 164.65625 C 204.597656 163.980469 204.910156 163.320312 205.253906 162.675781 C 205.597656 162.027344 205.976562 161.402344 206.382812 160.792969 C 206.789062 160.1875 207.222656 159.597656 207.6875 159.035156 C 208.152344 158.46875 208.640625 157.925781 209.160156 157.410156 C 209.675781 156.890625 210.21875 156.402344 210.78125 155.9375 C 211.347656 155.472656 211.933594 155.039062 212.542969 154.632812 C 213.152344 154.226562 213.777344 153.851562 214.421875 153.503906 C 215.066406 153.160156 215.730469 152.847656 216.40625 152.566406 C 217.082031 152.289062 217.769531 152.042969 218.46875 151.828125 C 219.167969 151.617188 219.875 151.441406 220.59375 151.296875 C 221.3125 151.15625 222.035156 151.046875 222.761719 150.976562 C 223.492188 150.902344 224.21875 150.867188 224.953125 150.867188 C 225.683594 150.867188 226.414062 150.902344 227.140625 150.976562 C 227.867188 151.046875 228.589844 151.15625 229.308594 151.296875 C 230.027344 151.441406 230.734375 151.617188 231.433594 151.828125 C 232.136719 152.042969 232.824219 152.289062 233.5 152.566406 C 234.175781 152.847656 234.835938 153.160156 235.480469 153.503906 C 236.125 153.851562 236.75 154.226562 237.359375 154.632812 C 237.96875 155.039062 238.554688 155.472656 239.121094 155.9375 C 239.6875 156.402344 240.226562 156.890625 240.746094 157.410156 Z M 240.746094 157.410156 " fill-opacity="1" fill-rule="nonzero"/><path fill="#ffffff" d="M 225.8125 183.105469 L 225.8125 175.304688 C 225.8125 174.320312 225.335938 173.578125 224.117188 173.578125 C 223 173.578125 222.207031 174.296875 221.808594 174.824219 L 221.808594 183.105469 L 217.722656 183.105469 L 217.722656 175.304688 C 217.722656 174.320312 217.269531 173.578125 216.023438 173.578125 C 214.933594 173.578125 214.164062 174.296875 213.742188 174.824219 L 213.742188 183.105469 L 209.652344 183.105469 L 209.652344 170.289062 L 213.742188 170.289062 L 213.742188 171.855469 C 214.296875 171.109375 215.941406 169.96875 217.960938 169.96875 C 219.789062 169.96875 221.0625 170.738281 221.59375 172.253906 C 222.335938 171.136719 224.007812 169.96875 226.027344 169.96875 C 228.386719 169.96875 229.875 171.191406 229.875 173.816406 L 229.875 183.105469 Z M 225.8125 183.105469 " fill-opacity="1" fill-rule="nonzero"/><path fill="#ffffff" d="M 231.886719 172.507812 L 231.886719 170.332031 C 236.714844 166.960938 237.433594 166.269531 237.433594 165.367188 C 237.433594 164.570312 236.796875 164.121094 235.867188 164.121094 C 234.671875 164.121094 233.53125 164.835938 233.027344 165.421875 L 231.488281 163.511719 C 232.683594 162.210938 234.488281 161.734375 235.945312 161.734375 C 238.628906 161.734375 240.457031 162.980469 240.457031 165.128906 C 240.457031 166.667969 239.316406 167.96875 236.265625 170.117188 L 240.539062 170.117188 L 240.539062 172.507812 Z M 231.886719 172.507812 " fill-opacity="1" fill-rule="nonzero"/></svg>