<svg xmlns="http://www.w3.org/2000/svg" xmlns:xlink="http://www.w3.org/1999/xlink" width="500" zoomAndPan="magnify" viewBox="0 0 375 374.999991" height="500" preserveAspectRatio="xMidYMid meet" version="1.0"><defs><clipPath id="id1"><path d="M 130.3125 112.5 L 245.0625 112.5 L 245.0625 262.5 L 130.3125 262.5 Z M 130.3125 112.5 " clip-rule="nonzero"/></clipPath></defs><g clip-path="url(#id1)"><path fill="#ff3d00" d="M 187.6875 112.5 C 156.023438 112.5 130.355469 138.082031 130.355469 169.644531 C 130.355469 212.5 187.6875 262.5 187.6875 262.5 C 187.6875 262.5 245.019531 212.5 245.019531 169.644531 C 245.019531 138.082031 219.351562 112.5 187.6875 112.5 Z M 187.6875 112.5 " fill-opacity="1" fill-rule="nonzero"/></g><path fill="#f5f5f5" d="M 187.6875 130.355469 C 186.398438 130.355469 185.109375 130.421875 183.824219 130.546875 C 182.539062 130.671875 181.265625 130.859375 180 131.113281 C 178.730469 131.363281 177.480469 131.675781 176.246094 132.046875 C 175.011719 132.421875 173.796875 132.855469 172.605469 133.347656 C 171.410156 133.839844 170.246094 134.390625 169.109375 134.996094 C 167.96875 135.601562 166.863281 136.261719 165.789062 136.976562 C 164.714844 137.691406 163.679688 138.457031 162.683594 139.273438 C 161.683594 140.089844 160.730469 140.953125 159.816406 141.863281 C 158.90625 142.773438 158.039062 143.726562 157.21875 144.71875 C 156.402344 145.714844 155.632812 146.746094 154.914062 147.816406 C 154.199219 148.886719 153.535156 149.988281 152.925781 151.125 C 152.320312 152.257812 151.765625 153.421875 151.273438 154.609375 C 150.777344 155.796875 150.34375 157.007812 149.96875 158.238281 C 149.59375 159.46875 149.28125 160.714844 149.03125 161.980469 C 148.777344 163.242188 148.589844 164.511719 148.460938 165.792969 C 148.335938 167.074219 148.273438 168.355469 148.273438 169.644531 C 148.273438 170.929688 148.335938 172.214844 148.460938 173.492188 C 148.589844 174.773438 148.777344 176.046875 149.03125 177.308594 C 149.28125 178.570312 149.59375 179.816406 149.96875 181.046875 C 150.34375 182.277344 150.777344 183.488281 151.273438 184.675781 C 151.765625 185.867188 152.320312 187.027344 152.925781 188.160156 C 153.535156 189.296875 154.199219 190.398438 154.914062 191.46875 C 155.632812 192.539062 156.402344 193.570312 157.21875 194.566406 C 158.039062 195.558594 158.90625 196.511719 159.816406 197.421875 C 160.730469 198.332031 161.683594 199.195312 162.683594 200.011719 C 163.679688 200.828125 164.714844 201.59375 165.789062 202.308594 C 166.863281 203.023438 167.96875 203.683594 169.109375 204.289062 C 170.246094 204.894531 171.410156 205.445312 172.605469 205.9375 C 173.796875 206.429688 175.011719 206.863281 176.246094 207.238281 C 177.480469 207.609375 178.730469 207.921875 180 208.171875 C 181.265625 208.425781 182.539062 208.613281 183.824219 208.738281 C 185.109375 208.867188 186.398438 208.929688 187.6875 208.929688 C 188.976562 208.929688 190.265625 208.867188 191.550781 208.738281 C 192.835938 208.613281 194.109375 208.425781 195.375 208.171875 C 196.644531 207.921875 197.894531 207.609375 199.128906 207.238281 C 200.363281 206.863281 201.578125 206.429688 202.769531 205.9375 C 203.964844 205.445312 205.128906 204.894531 206.265625 204.289062 C 207.40625 203.683594 208.511719 203.023438 209.585938 202.308594 C 210.660156 201.59375 211.695312 200.828125 212.691406 200.011719 C 213.691406 199.195312 214.644531 198.332031 215.558594 197.421875 C 216.46875 196.511719 217.335938 195.558594 218.15625 194.566406 C 218.972656 193.570312 219.742188 192.539062 220.460938 191.46875 C 221.175781 190.398438 221.839844 189.296875 222.449219 188.160156 C 223.054688 187.027344 223.609375 185.867188 224.101562 184.675781 C 224.597656 183.488281 225.03125 182.277344 225.40625 181.046875 C 225.78125 179.816406 226.09375 178.570312 226.34375 177.308594 C 226.597656 176.046875 226.785156 174.773438 226.914062 173.492188 C 227.039062 172.214844 227.101562 170.929688 227.101562 169.644531 C 227.101562 168.355469 227.039062 167.074219 226.914062 165.792969 C 226.785156 164.511719 226.597656 163.242188 226.34375 161.980469 C 226.09375 160.714844 225.78125 159.46875 225.40625 158.238281 C 225.03125 157.007812 224.597656 155.796875 224.101562 154.609375 C 223.609375 153.421875 223.054688 152.257812 222.449219 151.125 C 221.839844 149.988281 221.175781 148.886719 220.460938 147.816406 C 219.742188 146.746094 218.972656 145.714844 218.15625 144.71875 C 217.335938 143.726562 216.46875 142.773438 215.558594 141.863281 C 214.644531 140.953125 213.691406 140.089844 212.691406 139.273438 C 211.695312 138.457031 210.660156 137.691406 209.585938 136.976562 C 208.511719 136.261719 207.40625 135.601562 206.265625 134.996094 C 205.128906 134.390625 203.964844 133.839844 202.769531 133.347656 C 201.578125 132.855469 200.363281 132.421875 199.128906 132.046875 C 197.894531 131.675781 196.644531 131.363281 195.375 131.113281 C 194.109375 130.859375 192.835938 130.671875 191.550781 130.546875 C 190.265625 130.421875 188.976562 130.355469 187.6875 130.355469 Z M 187.6875 130.355469 " fill-opacity="1" fill-rule="nonzero"/><path fill="#1976d2" d="M 205.601562 159.949219 L 205.601562 148.214844 L 198.4375 148.214844 L 198.4375 153.824219 L 187.6875 144.644531 L 162.605469 166.070312 L 166.1875 166.070312 L 166.1875 191.070312 L 180.519531 191.070312 L 180.519531 173.214844 L 194.855469 173.214844 L 194.855469 191.070312 L 209.1875 191.070312 L 209.1875 166.070312 L 212.769531 166.070312 Z M 205.601562 159.949219 " fill-opacity="1" fill-rule="nonzero"/></svg>