<svg xmlns="http://www.w3.org/2000/svg" xmlns:xlink="http://www.w3.org/1999/xlink" width="500" zoomAndPan="magnify" viewBox="0 0 375 374.999991" height="500" preserveAspectRatio="xMidYMid meet" version="1.0"><defs><clipPath id="id1"><path d="M 112.539062 140.90625 L 262.460938 140.90625 L 262.460938 233.90625 L 112.539062 233.90625 Z M 112.539062 140.90625 " clip-rule="nonzero"/></clipPath></defs><g clip-path="url(#id1)"><path fill="#ffffff" d="M 258.867188 193.988281 L 132.839844 233.671875 C 130.132812 234.527344 127.246094 233.027344 126.390625 230.324219 L 112.777344 187.265625 C 111.925781 184.5625 113.425781 181.683594 116.132812 180.828125 L 242.160156 141.144531 C 244.867188 140.292969 247.753906 141.792969 248.609375 144.492188 L 262.222656 187.554688 C 263.074219 190.257812 261.574219 193.136719 258.867188 193.988281 " fill-opacity="1" fill-rule="nonzero"/></g><path fill="#d3362d" d="M 120.550781 186.257812 C 119.871094 186.46875 119.496094 187.195312 119.710938 187.875 L 131.71875 225.855469 C 131.933594 226.535156 132.660156 226.910156 133.335938 226.699219 L 254.445312 188.5625 C 255.125 188.347656 255.503906 187.625 255.289062 186.945312 L 243.28125 148.960938 C 243.066406 148.285156 242.339844 147.90625 241.660156 148.121094 Z M 255.171875 190.859375 L 134.0625 228.996094 C 132.117188 229.609375 130.03125 228.527344 129.414062 226.582031 L 117.40625 188.597656 C 116.792969 186.652344 117.875 184.574219 119.824219 183.957031 L 240.933594 145.824219 C 242.882812 145.210938 244.96875 146.292969 245.585938 148.238281 L 257.59375 186.222656 C 258.207031 188.164062 257.121094 190.246094 255.171875 190.859375 " fill-opacity="1" fill-rule="nonzero"/><path fill="#d3362d" d="M 154.898438 191.816406 L 147.03125 194.296875 C 146.746094 193.484375 146.222656 192.949219 145.460938 192.679688 C 144.703125 192.417969 143.785156 192.449219 142.714844 192.789062 C 140.867188 193.371094 140.125 194.222656 140.480469 195.347656 C 140.578125 195.652344 140.824219 195.898438 141.21875 196.082031 C 141.617188 196.265625 142.117188 196.367188 142.730469 196.386719 C 143.339844 196.40625 143.898438 196.40625 144.398438 196.386719 C 144.898438 196.371094 145.457031 196.332031 146.070312 196.261719 C 146.683594 196.195312 147.042969 196.160156 147.152344 196.152344 C 148.316406 196.09375 149.324219 196.074219 150.171875 196.085938 C 151.023438 196.101562 151.96875 196.203125 153.011719 196.394531 C 154.058594 196.585938 154.949219 196.878906 155.679688 197.28125 C 156.414062 197.679688 157.109375 198.265625 157.773438 199.023438 C 158.433594 199.785156 158.941406 200.714844 159.289062 201.8125 C 160.183594 204.648438 159.824219 207.242188 158.199219 209.59375 C 156.578125 211.945312 153.9375 213.695312 150.273438 214.847656 C 146.460938 216.050781 143.175781 216.121094 140.421875 215.066406 C 137.664062 214.011719 135.78125 211.96875 134.769531 208.945312 L 143.179688 206.296875 C 144.054688 208.605469 145.84375 209.332031 148.558594 208.476562 C 149.609375 208.148438 150.375 207.683594 150.859375 207.078125 C 151.34375 206.476562 151.480469 205.832031 151.261719 205.140625 C 151.125 204.707031 150.824219 204.390625 150.371094 204.199219 C 149.949219 204.023438 149.210938 203.917969 148.160156 203.882812 C 147.105469 203.851562 145.875 203.851562 144.46875 203.890625 C 143.058594 203.925781 142.164062 203.933594 141.789062 203.910156 C 140.570312 203.871094 139.546875 203.789062 138.714844 203.65625 C 137.886719 203.523438 137.046875 203.277344 136.199219 202.910156 C 135.347656 202.546875 134.636719 202 134.054688 201.269531 C 133.472656 200.539062 133.003906 199.609375 132.648438 198.484375 C 131.839844 195.929688 132.207031 193.546875 133.742188 191.335938 C 135.28125 189.125 137.699219 187.5 141.003906 186.457031 C 144.488281 185.363281 147.4375 185.28125 149.863281 186.21875 C 152.28125 187.15625 153.960938 189.023438 154.898438 191.816406 " fill-opacity="1" fill-rule="nonzero"/><path fill="#d3362d" d="M 171.457031 184.074219 C 169.765625 184.605469 168.652344 185.691406 168.109375 187.320312 C 167.570312 188.953125 167.675781 190.941406 168.417969 193.292969 C 169.183594 195.722656 170.253906 197.453125 171.625 198.496094 C 172.996094 199.539062 174.554688 199.789062 176.292969 199.242188 C 178.007812 198.699219 179.097656 197.621094 179.574219 195.992188 C 180.046875 194.371094 179.871094 192.269531 179.054688 189.6875 C 178.335938 187.414062 177.308594 185.78125 175.964844 184.785156 C 174.625 183.785156 173.121094 183.550781 171.457031 184.074219 Z M 169.449219 177.332031 C 173.546875 176.042969 177.269531 176.324219 180.613281 178.179688 C 183.957031 180.035156 186.308594 183.105469 187.667969 187.398438 C 189.015625 191.667969 188.84375 195.511719 187.15625 198.9375 C 185.464844 202.363281 182.558594 204.726562 178.4375 206.023438 C 174.238281 207.347656 170.441406 207.101562 167.054688 205.289062 C 163.667969 203.476562 161.292969 200.410156 159.925781 196.09375 C 158.5625 191.773438 158.746094 187.902344 160.476562 184.476562 C 162.207031 181.050781 165.203125 178.667969 169.449219 177.332031 " fill-opacity="1" fill-rule="nonzero"/><path fill="#d3362d" d="M 213.921875 186.296875 L 216.171875 193.425781 L 195.625 199.894531 L 187 172.609375 L 195.410156 169.960938 L 201.785156 190.117188 L 213.921875 186.296875 " fill-opacity="1" fill-rule="nonzero"/><path fill="#d3362d" d="M 221.734375 169.210938 L 226.011719 182.742188 L 229.316406 181.703125 C 231.335938 181.066406 232.679688 179.996094 233.34375 178.492188 C 234.011719 176.992188 234.011719 175.195312 233.347656 173.097656 C 232.628906 170.824219 231.480469 169.304688 229.902344 168.539062 C 228.324219 167.769531 226.429688 167.734375 224.226562 168.425781 Z M 211.347656 164.941406 L 223.558594 161.097656 C 227.785156 159.765625 231.515625 159.917969 234.765625 161.550781 C 238.011719 163.179688 240.300781 166.105469 241.636719 170.320312 C 243.058594 174.816406 242.941406 178.605469 241.28125 181.683594 C 239.621094 184.761719 236.539062 187.011719 232.03125 188.429688 L 219.976562 192.226562 L 211.347656 164.941406 " fill-opacity="1" fill-rule="nonzero"/></svg>